<?xml version="1.0" encoding="UTF-8" standalone="no"?>
<!-- Created with Inkscape (http://www.inkscape.org/) -->

<svg
   inkscape:export-ydpi="96"
   inkscape:export-xdpi="96"
   inkscape:export-filename="lula.png"
   inkscape:version="1.2.1 (9c6d41e410, 2022-07-14)"
   version="1.1"
   id="svg4362"
   width="1000"
   height="1000"
   viewBox="0 0 1000 1000"
   sodipodi:docname="lula.svg"
   xml:space="preserve"
   xmlns:inkscape="http://www.inkscape.org/namespaces/inkscape"
   xmlns:sodipodi="http://sodipodi.sourceforge.net/DTD/sodipodi-0.dtd"
   xmlns="http://www.w3.org/2000/svg"
   xmlns:svg="http://www.w3.org/2000/svg"><defs
     id="defs4366" /><sodipodi:namedview
     id="namedview4364"
     pagecolor="#ffffff"
     bordercolor="#000000"
     borderopacity="0.25"
     inkscape:showpageshadow="2"
     inkscape:pageopacity="0.0"
     inkscape:pagecheckerboard="0"
     inkscape:deskcolor="#d1d1d1"
     showgrid="false"
     inkscape:zoom="0.5"
     inkscape:cx="784"
     inkscape:cy="873"
     inkscape:window-width="1920"
     inkscape:window-height="1046"
     inkscape:window-x="0"
     inkscape:window-y="0"
     inkscape:window-maximized="1"
     inkscape:current-layer="g4368" /><g
     inkscape:groupmode="layer"
     inkscape:label="Image"
     id="g4368"><g
       id="g34333"
       transform="matrix(0.28416787,0,0,0.28416787,-130.51858,615.549)"><path
         id="rect34204"
         style="fill:#0057ff;stroke-width:2.53293"
         d="m 2842.4507,1352.9 481.5781,-793.47177 h 654.3189 V 1352.9 Z"
         sodipodi:nodetypes="ccccc"
         inkscape:label="azul" /><path
         id="path32750"
         style="fill:#013a83;fill-opacity:1;stroke-width:0.388039"
         d="m 3142.9873,493.98643 c -6.8326,-0.023 -13.6344,0.051 -20.3769,0.1778 -54.8098,-0.81 -113.8898,3.1905 -160.3496,35.4003 25.9584,-25.2731 -103.8335,101.09247 -77.8751,75.8194 l -166.0807,-105.9129 -59.9573,59.9572 V 1352.9 l 184.1025,10e-4 460.6231,-460.62303 c 20.3748,-19.31809 34.2245,-45.36836 37.168,-73.57227 4.23,-36.93092 0.219,-80.46659 -29.711,-106.31055 21.48,-22.18194 26.061,-54.73052 25.041,-84.35546 -0.31,-40.40596 -18.7613,-81.87536 -54.2011,-103.19536 -41.2037,-25.7423 -90.5536,-30.6973 -138.3829,-30.8574 z"
         sodipodi:nodetypes="sccccccccccccss"
         inkscape:label="sombra13" /><path
         style="fill:#fde500;stroke-width:0.388039"
         d="m 3132.1485,933.22913 c -56.5688,0.1705 -117.7846,-2.6197 -165.6926,-36.3287 -35.3454,-24.9907 -50.113,-69.5918 -49.5572,-111.448 6.8155,-2.7091 18.8404,-0.3868 27.6593,-1.1609 h 107.0724 c -1.6259,15.5453 14.8112,26.6356 29.204,23.4764 36.8589,-0.4763 74.001,0.9501 110.6841,-0.7085 20.3724,-4.9198 21.8377,-36.3839 2.7162,-44.1181 -16.5172,-3.8943 -34.2161,-0.781 -51.2104,-1.8462 -15.5898,-0.036 -31.1796,-0.073 -46.7694,-0.1099 v -101.6422 c 31.4013,-0.3983 62.986,0.7798 94.2729,-0.6013 20.9173,-3.6668 23.4705,-36.5061 3.6661,-43.6775 -17.1398,-4.15148 -35.4899,-0.805 -53.1102,-1.8845 -24.8032,0.7151 -49.9065,-1.45928 -74.514,1.1405 -9.4522,3.3265 -16.2133,13.21 -14.9395,23.2925 h -134.7704 c -0.7027,-42.4656 14.1915,-87.9867 50.3719,-113.0218 46.4632,-32.2147 105.542,-36.2075 160.3558,-35.4031 53.9391,-1.0118 111.6678,1.2591 158.7583,30.6813 16.1052,9.6889 28.7028,23.5387 37.683,39.5591 10.7804,19.2318 16.3479,41.5916 16.5127,63.6362 1.0209,29.6247 -3.5572,62.1732 -25.0388,84.3558 29.9312,25.8432 33.9403,69.3792 29.7105,106.3104 -4.4523,42.7355 -33.8565,80.624 -73.2531,97.441 -43.4639,20.3373 -92.6248,22.5592 -139.8116,22.0575 z m -378.5309,-10.0196 c -0.065,-100.0494 -0.1301,-200.0988 -0.1951,-300.1481 -11.7058,-0.067 -23.4116,-0.1347 -35.1175,-0.202 v -123.3884 h 166.0807 v 423.7385 z"
         id="path8664"
         sodipodi:nodetypes="ccccccccccccccccccccscccccccccccc"
         inkscape:label="13" /><rect
         style="fill:#fd0000;fill-opacity:1;stroke:none;stroke-width:3.26929;stroke-dasharray:none;stroke-opacity:1"
         id="rect12198"
         width="2199.0469"
         height="793.4718"
         x="459.30096"
         y="559.42822"
         inkscape:label="vermelho" /><path
         id="path13736"
         style="fill:#9b0000;fill-opacity:1;stroke:none;stroke-width:3.26929;stroke-dasharray:none;stroke-opacity:1"
         d="M 1419.1143,623.33997 793.0616,1352.9005 h 1420.2011 l 383.1231,-446.46678 -106.1465,-0.0137 -18.082,-46.75586 h -89.8067 l -18.1269,46.76757 9.1777,-283.08984 -172.0449,200.49023 h -106.2813 v -200.4902 h -100.955 l -87.1856,-0.002 -121.0176,141.02734 0.2911,-141.02734 h -87.1797 l -172.0508,200.49419 h -20.6777 V 623.33997 Z"
         inkscape:label="sombraLULA" /><path
         d="m 1836.251,949.14069 c -2.9089,0.035 -5.8284,-0.0699 -8.7308,0.0527 -2.2853,0.38558 -4.6087,0.61323 -6.8702,1.09802 -1.873,0.69354 -3.8462,1.15679 -5.6526,2.00353 -1.4489,0.83023 -3.0526,1.44259 -4.1844,2.71889 -0.8223,0.85244 -1.8944,1.51604 -2.5474,2.49671 -0.6172,1.3115 -1.3777,2.58921 -1.9064,3.92174 0.037,2.10886 -0.073,4.25386 0.055,6.34012 0.7832,1.30623 1.2151,2.87523 2.4701,3.82827 0.945,0.8976 1.791,1.92946 3.037,2.41795 1.3873,0.80132 2.7994,1.54589 4.356,1.96087 1.7906,0.64553 3.5922,1.2492 5.4853,1.50807 2.6518,0.5289 5.3011,1.07395 8.0055,1.24528 3.8423,0.42291 7.7039,0.71938 11.5342,1.22057 1.7763,0.42651 3.6253,0.62173 5.3545,1.1986 1.0069,0.50452 2.1756,0.78633 3.0805,1.43155 0.6363,0.83199 1.5316,1.52814 2.0046,2.4459 0.1992,0.83353 0.5819,1.6716 0.1278,2.49045 -0.3097,0.94945 -0.4195,2.00949 -1.2591,2.66551 -0.711,0.75486 -1.2585,1.73137 -2.3349,1.99142 -1.6053,0.66671 -3.121,1.61747 -4.8866,1.77579 -1.8731,0.32282 -3.7239,0.88172 -5.6431,0.71868 -2.7289,-0.0406 -5.4719,0.0813 -8.1919,-0.061 -2.4944,-0.51597 -5.0837,-0.6624 -7.4645,-1.62179 -1.7797,-0.59154 -3.5758,-1.14504 -5.1848,-2.13368 -1.5138,-0.80431 -3.1028,-1.49432 -4.3534,-2.69944 -0.9414,-0.7589 -1.8833,-1.51708 -2.825,-2.27562 -1.7769,1.95767 -3.5539,3.91516 -5.3312,5.87248 -0.2451,0.85079 0.7329,1.0868 1.2294,1.56479 2.2058,1.78889 4.7364,3.09952 7.1753,4.52946 2.5514,0.95272 5.0182,2.16882 7.7065,2.69592 1.9905,0.5596 4.007,0.9843 6.067,1.1828 2.9981,0.4394 6.0332,0.7388 9.0627,0.4983 2.3947,-0.1061 4.8027,-0.082 7.1551,-0.6046 1.807,-0.322 3.6646,-0.4508 5.3509,-1.2333 1.7773,-0.73661 3.7367,-1.10604 5.2927,-2.28878 1.1432,-0.73577 2.3659,-1.37701 3.1773,-2.50624 0.8222,-0.98355 1.8423,-1.84605 2.5373,-2.90723 0.5955,-1.72374 1.4609,-3.38011 1.5336,-5.23491 0.1659,-1.0648 0.373,-2.13091 0,-3.17837 -0.3322,-1.34788 -0.3419,-2.81746 -1.2209,-3.95872 -0.5526,-0.97188 -1.0292,-2.00607 -1.9999,-2.63524 -0.8834,-0.81938 -1.7784,-1.62148 -2.9224,-2.0549 -1.5088,-0.78858 -3.0163,-1.5808 -4.6875,-1.96688 -1.7493,-0.58481 -3.5163,-1.0935 -5.3566,-1.28733 -3.1744,-0.49958 -6.3367,-1.10054 -9.5543,-1.23584 -3.2853,-0.26945 -6.5851,-0.41514 -9.8288,-1.04009 -1.8298,-0.26517 -3.6624,-0.5181 -5.3992,-1.18202 -0.855,-0.29896 -1.8358,-0.38478 -2.3939,-1.18696 -0.7461,-0.79435 -1.723,-1.48993 -2.3269,-2.34488 0.078,-0.94023 -0.1583,-1.96884 0.1227,-2.85209 0.6546,-0.88197 0.9458,-2.13711 2.0752,-2.53128 1.4654,-0.79413 2.8255,-1.83658 4.5029,-2.12996 2.5455,-0.85898 5.2542,-0.95829 7.8865,-1.41337 2.8385,0.17666 5.6967,0.20275 8.5228,0.47422 2.288,0.55 4.6668,0.79982 6.8134,1.81784 1.4563,0.57351 2.9622,1.05144 4.2005,2.0448 1.2555,0.82715 2.5109,1.65432 3.7664,2.48148 2.0622,-1.79368 3.7625,-3.93414 5.5629,-5.97864 -1.6899,-1.19196 -3.2475,-2.60208 -5.1917,-3.374 -1.9616,-0.93526 -3.8544,-2.04323 -5.9853,-2.55397 -1.9072,-0.5948 -3.7899,-1.2962 -5.798,-1.45115 -1.7403,-0.25975 -3.4813,-0.51399 -5.222,-0.7705 z m -286.7093,1.37268 c 0,16.72184 0,33.44369 0,50.16553 2.8238,0 5.6477,0 8.4715,0 0,-6.00068 0,-12.00136 0,-18.00204 7.1185,0.0123 14.237,0.0241 21.3555,0.0355 5.0592,5.9758 10.1187,11.95145 15.1783,17.92694 3.5886,0.013 7.1773,0.027 10.7659,0.04 -0.034,-0.71831 -0.877,-1.13236 -1.2418,-1.72622 -4.8906,-5.58734 -9.7813,-11.17462 -14.672,-16.76188 1.7997,-0.50115 3.7012,-0.72287 5.3238,-1.70932 1.2058,-0.64667 2.5334,-1.12258 3.6632,-1.87549 1.067,-1.14013 2.3053,-2.1595 3.2635,-3.37618 0.6742,-1.50247 1.485,-2.97424 2.0749,-4.49573 -0.034,-2.81634 0.067,-5.66284 -0.05,-8.46033 -0.8034,-1.62947 -1.51,-3.32945 -2.3727,-4.91589 -1.2465,-1.10607 -2.3841,-2.37168 -3.6988,-3.37782 -2.0496,-0.93162 -4.0127,-2.08996 -6.2325,-2.57524 -1.192,-0.37749 -2.3816,-0.77156 -3.6498,-0.63227 -12.7262,-0.0867 -25.4524,-0.1732 -38.1786,-0.25956 z m -130.2506,0 c 0,16.72048 0,33.44095 0,50.16143 2.8197,0 5.6395,0 8.4592,0 0.063,-5.70656 0.1253,-11.41311 0.188,-17.11967 10.3541,-0.13421 20.7083,-0.26841 31.0624,-0.40261 1.9111,-0.60957 3.9035,-1.01319 5.6463,-2.04872 1.3242,-0.656 2.7107,-1.21623 3.7602,-2.29463 0.878,-0.63302 1.6222,-1.3861 2.1339,-2.34772 0.7059,-1.08124 1.5473,-2.09827 1.7778,-3.40467 0.3724,-1.4802 1.1613,-2.89734 0.9777,-4.4614 -0.058,-1.48667 0.1182,-3.00341 -0.089,-4.47097 -0.4234,-1.37872 -0.614,-2.85363 -1.1852,-4.17107 -0.832,-1.29675 -1.3894,-2.8102 -2.6539,-3.76543 -1.0754,-0.96593 -1.9757,-2.18205 -3.3929,-2.65952 -1.6137,-0.77319 -3.1642,-1.7145 -4.951,-2.02599 -1.442,-0.37846 -2.8653,-0.89654 -4.3794,-0.73813 -12.4513,-0.0836 -24.9027,-0.16726 -37.354,-0.2509 z m 262.619,0.0382 c 0,16.70784 0,33.41569 0,50.12353 16.7078,0 33.4157,0 50.1235,0 0,-2.47088 0,-4.94177 0,-7.41265 -13.7663,0 -27.5326,0 -41.2989,0 0,-4.70642 0,-9.41283 0,-14.11925 11.4131,0 22.8262,0 34.2393,0 0,-2.58855 0,-5.17711 0,-7.76566 -11.4131,0 -22.8262,0 -34.2393,0 0,-4.47112 0,-8.94223 0,-13.41335 13.531,0 27.062,0 40.593,0 0,-2.47087 0,-4.94175 0,-7.41262 -16.4725,0 -32.9451,0 -49.4176,0 z m 255.5594,0 c 0,16.70784 0,33.41569 0,50.12353 2.8239,0 5.6477,0 8.4716,0 0,-16.70784 0,-33.41569 0,-50.12353 -2.8239,0 -5.6477,0 -8.4716,0 z m 89.6575,0 c 0,16.72438 0,33.44875 0,50.17313 11.0013,-0.093 22.0026,-0.1866 33.0039,-0.2806 2.5975,-0.75857 5.3147,-1.16414 7.7699,-2.34271 1.4531,-0.57561 2.8924,-1.17745 4.1481,-2.12633 1.4042,-0.959 2.9772,-1.71178 4.0603,-3.06318 1.1471,-1.23087 2.5018,-2.30079 3.2387,-3.84966 0.8018,-1.31822 1.6921,-2.59495 2.0616,-4.11637 0.381,-1.29275 1.02,-2.53665 1.2315,-3.86154 0.097,-2.89038 0.2756,-5.78801 0.3219,-8.6739 -0.4457,-1.82849 -0.7462,-3.70867 -1.2829,-5.50491 -0.9708,-1.84257 -1.7979,-3.78385 -2.8573,-5.5654 -1.2496,-1.28373 -2.3522,-2.73828 -3.693,-3.91572 -1.7028,-1.09445 -3.3386,-2.31938 -5.0822,-3.33419 -2.4085,-0.89508 -4.7789,-1.91213 -7.3114,-2.40973 -2.4531,-0.67836 -5.0204,-0.74422 -7.5283,-1.12889 -9.3603,0 -18.7205,0 -28.0808,0 z m 133.4274,0 c 0,16.70784 0,33.41569 0,50.12353 16.7078,0 33.4157,0 50.1235,0 0,-2.46882 0,-4.93764 0,-7.40646 -13.8251,-0.0605 -27.6503,-0.12144 -41.4754,-0.1827 -0.064,-4.64759 -0.128,-9.29519 -0.192,-13.94278 11.5358,0 23.0716,0 34.6074,0 0,-2.58855 0,-5.17711 0,-7.76566 -11.536,0 -23.0721,0 -34.6081,0 0.065,-4.41229 0.1292,-8.82458 0.193,-13.23688 13.5898,-0.0607 27.1796,-0.12133 40.7694,-0.182 0,-2.46905 0,-4.93811 0,-7.40716 -16.4726,-2e-5 -32.9452,2e-5 -49.4178,1.1e-4 z m 127.4267,0 c 0,16.70784 0,33.41569 0,50.12353 2.7062,0 5.4124,0 8.1186,0 0.01,-13.11918 0.02,-26.23837 0.03,-39.35755 12.9916,13.12836 25.9835,26.25651 38.9756,39.38445 2.6474,-0.01 5.2947,-0.019 7.9421,-0.028 0,-16.70757 0,-33.41513 0,-50.1227 -2.8218,0 -5.6436,0 -8.4654,0 -0.061,12.57889 -0.1225,25.15779 -0.183,37.73669 -12.3544,-12.55388 -24.7088,-25.10773 -37.0632,-37.66156 -3.1182,-0.0248 -6.2365,-0.0498 -9.3547,-0.0749 z m 129.8976,0 c 0,2.47087 0,4.94175 0,7.41262 7.5303,0 15.0606,0 22.5909,0 0,14.23697 0,28.47394 0,42.71091 2.9415,0 5.883,0 8.8245,0 0,-14.23697 0,-28.47394 0,-42.71091 7.648,0 15.2959,0 22.9439,0 0,-2.47087 0,-4.94175 0,-7.41262 -18.1198,0 -36.2395,0 -54.3593,0 z m 129.1916,0 c 0,16.70784 0,33.41569 0,50.12353 16.4725,0 32.945,0 49.4175,0 0,-2.46882 0,-4.93764 0,-7.40646 -13.5898,-0.0605 -27.1796,-0.12144 -40.7694,-0.1827 -0.064,-4.64759 -0.128,-9.29519 -0.192,-13.94278 11.4182,0 22.8364,0 34.2546,0 0,-2.58855 0,-5.17711 0,-7.76566 -11.4184,0 -22.8368,0 -34.2552,0 0.065,-4.41229 0.1292,-8.82458 0.193,-13.23688 13.5898,-0.0607 27.1796,-0.12133 40.7694,-0.182 0,-2.46905 0,-4.93811 0,-7.40716 -16.4726,-2e-5 -32.9453,2e-5 -49.4179,1.1e-4 z m -964.8777,7.37823 c 2.2665,0.2795 4.5651,0.45133 6.8118,0.79765 1.259,0.6786 2.6211,1.23777 3.8179,1.98817 0.6696,1.03196 1.5209,2.00646 2.0776,3.07415 0,1.92027 0,3.84055 0,5.76082 -0.7541,1.02285 -1.4052,2.16446 -2.2232,3.11374 -1.3503,0.6232 -2.6421,1.42709 -4.0287,1.93849 -2.0277,0.30817 -4.0403,0.80573 -6.1056,0.65205 -8.0661,0 -16.1321,0 -24.1982,0 -0.6251,-1.18758 -0.2196,-2.55999 -0.3102,-3.84344 0.052,-4.42541 0.1037,-8.85082 0.1555,-13.27623 8.001,-0.0707 16.002,-0.13911 24.0031,-0.2054 z m 468.4078,0 c 2.8096,0.28286 5.6437,0.43998 8.4378,0.80286 1.6671,0.57193 3.4313,0.91461 5.035,1.63634 1.3231,0.78659 2.7638,1.42145 4.0134,2.30279 1.1637,1.29804 2.4803,2.48896 3.5501,3.85275 0.7402,1.59701 1.7775,3.08612 2.0126,4.86632 0.2872,1.18775 0.6639,2.36756 0.4368,3.60055 -0.1461,1.74492 -0.1014,3.53067 -0.3663,5.25016 -0.5675,1.29806 -0.9011,2.72908 -1.6215,3.94047 -1.0465,1.24941 -1.9575,2.64542 -3.088,3.80425 -1.4777,0.93387 -2.8782,2.02912 -4.4043,2.86253 -2.0138,0.5744 -3.9743,1.38203 -6.0234,1.80249 -2.1064,0.28711 -4.2012,0.73419 -6.3385,0.59539 -5.4382,0.005 -10.8764,0.0105 -16.3146,0.0158 -0.616,-1.18343 -0.2245,-2.55053 -0.3227,-3.82841 0.056,-10.4311 0.1121,-20.86219 0.1682,-31.29328 4.9418,-0.0682 9.8836,-0.13852 14.8254,-0.21104 z m -598.6584,0.01 c 2.0014,0.28535 4.0491,0.39877 6.0215,0.79208 1.1246,0.5207 2.3299,0.92908 3.4054,1.51865 0.7792,0.91824 1.6919,1.76359 2.3907,2.72549 0.3007,1.39728 1.0022,2.7561 0.6924,4.2118 -0.1406,0.96238 8e-4,2.01612 -0.3208,2.92008 -0.709,1.07167 -1.3041,2.26706 -2.0852,3.26077 -1.6226,0.78713 -3.2099,1.71876 -4.8539,2.41819 -9.814,0.0705 -19.6279,0.14098 -29.4418,0.21155 0.063,-5.95383 0.1253,-11.90766 0.188,-17.86149 8.0012,-0.0657 16.0025,-0.13146 24.0037,-0.19712 z"
         style="fill:#ffffff;fill-opacity:1;stroke:none;stroke-width:1.154;stroke-dasharray:none;stroke-opacity:1"
         id="path11412"
         inkscape:label="presidente" /><path
         id="path8666"
         style="fill:#ffffff;fill-opacity:1;stroke:none;stroke-width:1.154;stroke-dasharray:none;stroke-opacity:1"
         d="m 1419.1138,623.34073 v 283.09199 h 270.0317 v -82.59791 h -182.845 V 623.34073 Z m 279.9152,0 c 1.2652,64.49318 -2.7165,129.22487 2.4184,193.5524 2.7393,37.10739 22.8089,76.38631 61.1315,86.68409 44.9596,13.3142 93.0721,10.66528 139.2364,6.68452 36.7317,-3.37473 74.2245,-25.03777 83.4584,-62.91774 15.1713,-55.5697 6.5337,-113.9276 8.8473,-170.76492 0,-17.74605 -1e-4,-35.49229 0,-53.23835 h -87.1867 c -1.0704,59.24882 2.1861,118.7226 -1.7656,177.82942 -1.9471,25.85083 -31.4487,30.40749 -52.1608,28.48893 -21.7188,-0.32284 -55.7935,4.63052 -63.5396,-22.45581 -6.8275,-40.36105 -1.5977,-81.89602 -3.2493,-122.71936 0,-20.38106 0,-40.76212 -0.01,-61.14318 h -87.1874 z m 308.8597,0 v 283.09199 h 356.3358 l 18.1262,-46.76804 h 89.8058 c 6.0276,15.58516 12.0552,31.17042 18.0827,46.75567 l 106.1471,0.0136 c -38.1748,-94.36297 -76.332,-188.73357 -114.518,-283.09199 -36.1553,9.1e-4 -72.3109,0 -108.4663,0 -36.8278,91.1043 -73.6557,182.20896 -110.4835,273.31326 -0.06,-24.27412 -0.12,-48.54843 -0.18,-72.82264 H 2095.0753 V 623.33705 Z m 419.5328,74.92268 13.0113,36.51575 38.4303,0.96169 -30.6122,23.69194 10.9631,36.94665 -31.9304,-21.87252 -31.6547,21.87252 10.8776,-37.21 -30.5267,-23.42859 38.6536,-1.12507 z"
         inkscape:label="LULA" /></g></g></svg>
